<?xml version="1.0" encoding="utf-8"?>
<!-- Generator: Adobe Illustrator 15.1.0, SVG Export Plug-In . SVG Version: 6.00 Build 0)  -->
<!DOCTYPE svg PUBLIC "-//W3C//DTD SVG 1.1//EN" "http://www.w3.org/Graphics/SVG/1.1/DTD/svg11.dtd">
<svg version="1.1" id="Layer_1" xmlns="http://www.w3.org/2000/svg" xmlns:xlink="http://www.w3.org/1999/xlink" x="0px" y="0px"
	 width="2268.095px" height="2167.727px" viewBox="-0.002 0 2268.095 2167.727" enable-background="new -0.002 0 2268.095 2167.727"
	 xml:space="preserve">
<path id="District_1" fill="#C8C8C8" d="M216.147,707.912c0.977,1.021,1.977,2.021,3,3c0.138,1.862,4.648,10.017,6,10.999
	c-0.184,0.851,4.817,3.515,5.999,4c3.283,1.716,36.054,11.564,39.995,8.999c1.162,0.163,9.833-5.167,8.999-11.999
	c0.973-0.028,2.163-2.837,2-4c5.254,1.622,7.777,9.46,13.998,6.999c0.866,24.797,2.083,49.245,4,72.991
	c36.068,1.727,72.087-5.227,108.986-5.999c3.046-10.83-1.126-22.784,0-34.996c101.896-7.757,206.137-13.168,308.961-19.998
	c-0.506,9.838,1.773,16.892,1,26.997c26.126,0.107,52.335-8.312,78.99-10.999c0.535,27.127,3.783,51.543,4,78.99
	c59.305,0.974,113.96-16.688,167.979-20.998c-1.165,0.168-3.162,7.837-3,9c1.102,35.563,11.348,70.644,14.999,106.984
	c-22.29,4.374-47.188,6.141-67.992,11.999c-0.743,6.411,1.167,10.165,1,15.998c-4.258,0.408-19.814,2.849-20.998,4
	c-0.482,6.816,1.809,10.858,2,16.998c-8.771,1.229-17.718,2.28-25.995,4c0.193,9.803,1.926,18.071,4,25.997
	c-18.271,13.488-58.877,2.127-74.991,1c-0.853-0.184-3.146,8.854-6,10.999c-49.779-2.761-67.146,38.612-85.99,47.994
	c-35.539-17.255-74.289-35.755-94.989-4c9.2,34.245-29.8,40.495-68.991,47.994c-0.852-0.185-0.942,0.391-1,1
	c-3.521,3.319,2.292,9.762-1,12.998c-163.688,9.292-323.565,22.392-485.938,32.996c-8.855-41.948-2.642-87.021-7.999-130.983
	c-3.684-30.233-10.897-60.596-13.998-88.989c0.163-1.163-3.221-10.777-4-10.999c-0.294-2.039-7.036-7.296-8.999-8.999
	c-5.251-4.082-13.221-16.775-14-16.997c-0.609-2.391,0.043-9.621,0-10.999c2.663-11.67-1.768-24.89-4-34.995
	c0.163-1.162-1.221-3.778-2-4c-0.569-3.235,0.303-5.028,2-6c1.162,0.162,4.053-2.278,4-3.999c1.905-4.762,6.406-6.927,8.999-10.999
	c0.973-0.026,0.776-1.225,1-2c1.189-5.478,2.255-11.075,6.999-12.999c1.163,0.163,3.788-1.878,4-3c1.633,0.45-0.658-8.343-2-9
	c0-1,0-2,0-3c0.606-1.728,9.778-3.221,9.999-4c3.065-1.935,5.017-4.981,7.999-6.999c1.163,0.162,5.333-1,6.999-1
	c12.601-12.396,65.974-54.346,67.992-57.992c0.333,0-2.221-7.778-3-7.999c-5.027-4.468,0.815-9.72,4.999-10.999
	c0.333,0,16.817,7.514,17.999,7.999c16.975,5.767,55.001,11.842,67.991-2c0.934-0.733,2.776-4.226,3-4.999
	C209.881,709.311,215.814,707.912,216.147,707.912z"/>
<path id="District_2" fill="#C8C8C8" d="M1070.04,329.958c1.163-0.163,1.779,0.221,2,1c-0.78,3.553-4.672,3.993-7,5.999
	c-1.419-0.085-2.831-0.165-3,1c-7.027-0.028-11.339,2.659-18.998,2c-0.667,0-1.333,0-2,0c-0.614,1.386-3.849,0.15-4,2
	c-25.622,7.708-50.619,16.04-74.991,24.997c-2.317-0.319-3.839,0.161-5,1c-0.691,2.364,4.613,20.385,5.999,21.999
	c-0.184,0.851,0.392,0.943,1,1c22.811,0.81,46.365-6.294,67.992-9.999c0.851,0.184,1.666-1,2-1c0.059-4.392-3.666-13.012-2-14.998
	c35.354-3.974,67.966-10.691,102.987-14.999c1.276,3.721,1.565,8.432,3,11.999c7.013,1.094,12.814-3.502,17.998-1
	c-0.087,1.419,6.159,22.839,6.999,23.999c5.709,0.043,10.948-0.382,14.998-2c0.851,0.184,0.94-0.39,1-1
	c17.188-8.348,7.407-31.597,5.999-50.994c4.029,6.969,4.023,17.972,6.999,25.997c1.453-0.547,7.589-1.743,7.999-3
	c2.016-10.689-3.928-22.063-4-33.996c6.011,7.322,8.999,33.663,8.999,33.996c1.453-0.547,11.088-1.577,11.999-4c0.333,0,0.666,0,1,0
	c-0.383-12.021-6.271-23.629-5-33.996c4.723,6.276,5.213,16.784,6.999,25.997c2.223,0.709,14.665-1,14.998-1
	c0.247-1.086,6.275-3.595,9.999-6c4.118-0.785,14.779,7.655,21.997,3c4.582-1.027,2.425-6.242,3-8
	c2.532,10.655,4.782,27.905,22.997,35.997c15,7.158,50.285-16.092,56.992-27.997c-0.02-6.647-3.294-10.038-3-16.998
	c1.161,0.163,4.737-1.594,4.999-3c1.761-1.438,2.278-0.917,2,2c0,0.667,1.764,9.57,1,14.999c3.72,2.206,15.188-0.19,15.998,0
	c1.546,27.904-1.954,45.154,35.994,61.992c1.875,14.458,4.827,27.835,7,41.995c-7.438,1.561-16.354,1.645-22.997,4
	c-0.099,8.097,1.469,14.528,3,20.997c9.224,0.224,15.229-2.77,23.997-3c1.608,9.056,5.297,28.167,5.302,29.17
	c-5.929,0.403-85.947,14.836-119.286,19.825c12.231,72.756,24.224,145.755,36.995,217.973c-7.611,1.721-17.139,1.528-23.997,4
	c0.354,5.643,1.229,10.77,2,15.998c-6.68,0.321-11.993,2.006-17.998,3c-5.035-21.295-6.489-46.17-11.999-66.992
	c-8.256,1.077-16.231,2.432-23.996,4c-1.556-4.778-0.827-11.838-3-15.998c-17.443,1.889-33.519,5.146-49.994,7.999
	c-0.136,6.468,1.704,10.961,2,16.998c-40.105,5.889-79.491,12.497-117.985,19.998c0.552,7.115,1.821,13.51,4,18.998
	c15.74-2.258,30.938-5.06,46.995-6.999c0.543,4.457,0.982,9.016,1.999,12.999c-52.959,10.365-109.208,17.443-162.979,26.997
	c0.52,7.146,1.036,14.295,3,19.998c23.896-2.1,45.222-6.772,67.99-9.999c4.516,27.479,9.73,54.261,13.998,81.99
	c-31.337,4.657-61.445,10.544-92.986,14.999c-2.358-18.309-6.651-34.68-7.999-53.994c1.171-0.161,3.83-12.503,4-14
	c-55.326,3.672-106.826,19.819-166.979,21.997c-2.723-25.273-4.093-51.899-4.999-78.99c-26.356-0.341-52.287,8.356-78.989,10.999
	c0.507-9.838-1.771-16.893-1-26.997c-103.791,3.863-211.622,12.348-315.96,18.998c-3.051,10.833,0.996,22.913,0,34.996
	c-34.76,1.901-67.492,5.831-102.987,6.999c-0.584-25.079-1.798-49.529-4-72.991c0.354-1.313,9.159-10.801,13-10.999
	c2.778,2.553,10.223,7.775,10.999,7.999c1.41,2.949,28.91-21.301,34.998-21.999c13.662-7.552,28.662,2.448,36.997-9
	c5.571-4.092,36.915-51.302,38.993-58.994c2.236-0.431,0.405-4.928,1-7c3.01-4.658,16.775-47.221,16.999-47.997
	c2.302-2.366,0.358-8.974,1-12.999c3.482-6.183,10.775-29.222,10.999-29.998c1.126-2.874,6.943-6.39,7-7
	c2.5-13.171,19.998-47.995,19.998-48.995c5.525-13.139,4.153-33.176,11.999-43.995c4.426-3.072,12.889-59.229,11-77.992
	c1.632-3.701,8.942-8.389,8.999-8.999c3.013-6.035-4.072-21.833,1-23.997c2.975-4.676-0.547-11.424,0-16.998
	c5.096-3.371,14.799-1.298,17.998,3c-0.085,1.419,4.223,16.778,5,16.999c0.914,1.752,15.822,6.844,16.999,7
	c18.893,2.772,38.73,4.598,56.993,7.999c4.688,0.414,21.036,16.294,23.998,19.999c0.138,1.862,1.521,7.813,3,8
	c0.438,1.23,64.814,36.512,65.996,36.997c14.941,10.418,62.664-2.329,66.993-5c1.419,0.086,79.218-23.224,79.994-23
	c6.358-1.002,1.64,14.325,6.999,10.999c1.438-0.56,2.438-1.56,3-3c-2.897-12.3,24.688-3.157,31.995-9.999
	c1.163,0.163,3.779-1.221,4-2c1.583-0.083,5.779-1.221,6-2c5.078-0.588,16.831-2.835,16.999-4c4.367-0.701,16.715,3.621,15.999,2
	c1.163,0.163,21.776-13.556,23-15c2.482,0.15,4.148-0.517,5-2c33.437,0.107,55.792-10.867,83.988-15.998
	C1059.492,335.034,1067.589,331.84,1070.04,329.958z"/>
<path id="District_3" fill="#C8C8C8" d="M1731.957,493.938c2.283,1.392-14.541,13.456-19.998,14.999
	c-0.086,1.42,6.021,12.182,7.999,8.998c1.163,0.163,17.236-9.76,23.997-14.997c1.313-1.199,1.573-0.391,3,0
	c-6.67,8.66-17.383,13.279-24.997,20.997c0.108,4.226,5.39,8.942,5.999,9c-0.715,1.621,4.715,1.621,4,0
	c0.333,0,20.619-14.044,22.997-17c-0.196,5.151-14.995,15.003-15.998,14.998c-0.086,1.42,25.875,36.784,26.996,36.996
	c-0.715,1.621,20.93-6.732,26.997-10.999c1.333,0,6.235,3.098,7.999,4c-12.187,17.479-29.257,30.07-45.994,42.995
	c-6.582-7.416-20.997-21.664-20.997-21.997c-1.163-0.163-128.068,127.568-191.978,189.978c-3.818,0.485-5.391-5.942-6-5.999
	c-2.821-3.08-6.899,1.041-10.998,0c0.334-5.334-1.243-8.754-2-12.999c4.847,0.179,8.538-0.794,11.998-2
	c0.468-9.467-5.065-12.933-5.998-20.998c-12.438,0.895-23.339,3.325-34.995,5c-0.06-4.608-0.464-8.87-2-11.999
	c0.185-0.853-0.392-0.943-1-1c0-0.333,0-0.667,0-1c-17.446,1.218-31.88,5.448-48.993,6.999c-0.37-5.962-1.248-11.417-3-15.998
	c-26.23,2.765-49.852,8.143-74.99,11.999c0.547,1.453,2,9.332,2,9.999c-6.012,1.986-13.451,2.547-19.998,4
	c-7.257-48.735-32.808-199.164-37.995-223.973c30.665-6.663,112.578-20.07,118.985-21.997c-1.083-11.916-4.469-21.529-4.999-33.995
	c-8.047-2.858-16.601,1.928-24.997,2c-0.444-4.891-2.062-8.606-2-13.998c7.14-1.859,16.245-1.752,22.997-4
	c-1.873-16.125-4.508-31.489-7.999-45.994c-0.443-0.891-0.878-1.789-2-2c-6.46-9.915-22.91-12.983-27.996-24.997
	c-4.235-10.002-0.671-22.164-5.999-33.996c0.188-0.81,19.994-7.003,20.997-7c-0.087,1.419,1.159,6.839,2,8
	c7.017-0.649,20.663-5,20.997-5c0.304-4.637-0.012-8.656-2-10.999c-5.744-0.588-14.939,2.274-14.998-4
	c0.185-0.851-31.39-23.271-43.994-36.995c4.595-1.915,6.877,6.202,13.998,4.999c0.31,1.357,2.504,0.83,4,1
	c0.69-0.807-3.363-6.721-1-7c12.081,1.938,44.242,32.365,52.992,38.995c3.693-0.638,13.786-1.878,13.998-3c0.334,0,0.666,0,1,0
	c0.183-2.181-4.817-4.515-5.998-5c0.025-0.973,1.224-0.776,1.998-1c0.027,0.973,3.723,2.945,5,3c0.432,2.236,4.929,0.405,7,1
	c0.655,1.342,7.223,3.776,7.998,4c0.692-0.807,1.557-2.739,0-3c-5.6-9.066-17.055-12.276-20.996-22.997
	c10.987,3.272,30.145,28.181,30.996,27.997c2.711,1.418,8.87,3.148,11.998,1c0.161-1.163-22-32.993-21.997-33.996
	c-0.553-2.217,10.34-7.992,13.998-10.999c1.577,2.622-4.781,5.85-7.999,6.999c3.49,6.84,27.688,41.302,29.996,40.996
	c0,0.333,13.993-0.003,14.998,0c0.086-1.419-14.108-30.887-20.998-42.995c0-0.333,1.265-7.069,4-7.999c1.42,0.086,7.666-1,9.998-1
	c6.201,5.797,0.688,23.31,4,31.996c-0.162,1.162,9.238,22.756,10.998,22.998c3.687,1.855,37.496,12.655,42.063,17.155
	c0.725-11.389-1.714-24.842-1.068-36.153c2.333,0,4.666,0,6.999,0c0.45,14.882,1.173,29.493,3,42.995
	c0.438,1.229,12.971,6.17,12.998,2c3.864-8.134,10.35-28.981,11.999-28.997c0.935,1.067,3.688,0.312,2.999,3
	c-3.357,8.305-9.61,29.382-10.998,29.996c-0.334,0,8.921,10.744,11.998,9.999c1.138-2.198,16.943-24.719,16.998-25.997
	c1.313-1.2,4.005,0.997,3.999,2c-4.441,6.555-18.078,24.121-14.998,25.997c-0.184,0.85,10.225,8.775,10.999,8.999
	c0-0.333,20.833-29.108,25.997-27.997c6.741,1.451,0.328,60.437,2.999,65.992c0.859,0.807,5.372,7.432,5.999,5
	c9.764-6.236,17.755-14.241,27.997-19.998c-0.729,2.728,1.986,2.013,2,4c-5.978,7.688-15.519,11.811-20.998,19.997
	c1.968,1.416,3.646,8.289,6.999,5c0.809-0.86,8.577-5.755,10.999-7.999c0.808-0.86,8.051-7.524,9.999-4.999
	c-6.473,9.19-16.219,15.108-25.997,20.997c1.306,4.694,5.447,6.552,6.999,10.999c1.76-0.575,28.735-15.594,28.996-16.998
	c6.002-0.813,9.338,9.188,12.999,13.998c-10.384,5.279-17.158,14.171-27.997,18.998c1.664,4.688,5.35,12.625,9.999,10.999
	c1.162,0.162,27.663-16.998,27.996-16.998c-5.242,8.427-18.587,17.402-28.996,23.997c3.603,4.409,7.373,13.939,12.999,12.997
	c0.809-0.859,24.24-18.756,28.996-19.997c0.528,0.804,1.043,1.622,1,3c-9.191,8.473-20.875,14.452-28.997,23.996
	c2.463,1.575,4.244,9.036,7.999,5.999C1713.123,507.099,1726.293,498.273,1731.957,493.938z"/>
<path id="District_4" fill="#C8C8C8" d="M72.165,1380.828c-4.708-72.899-8.392-146.819-15.998-218.973
	c172.157-12.159,344.629-23.988,516.935-35.996c1.295,20.703,1.936,42.061,3,62.99c-10.642-0.643-18.271,1.728-28.995,1
	c7.557,162.428,19.716,328.903,27.995,493.938c-78.33,4.251-306.89,17.908-335.958,13.998
	c-10.301-2.786-23.968-15.119-37.995-19.997c-25.795-7.915-81.307-2.122-96.988,2.999c-1.921-38.406-10.223-111.21-9.999-111.985
	c2.272-27.604-8.833-81.82-9.999-81.988c-3.653-30.345-6.277-61.715-7.999-93.988C76.25,1391.407,73.837,1383.154,72.165,1380.828z"
	/>
<path id="District_5" fill="#C8C8C8" d="M1149.03,725.909c-14.714-1.044-32.047,3.942-46.994,6c0.179-4.845-1.319-8.016-2-11.999
	c38.678-7.649,80.045-12.609,117.985-20.997c0.056-6.055-1.395-10.605-2-15.998c14.629-2.036,28.605-4.723,42.993-6.999
	c1.557,4.778,0.827,11.838,3,15.998c8.107-0.894,16.101-1.899,22.997-4c1.003-0.003,1.19,0.81,2,1
	c3.031,22.632,6.176,45.152,10.998,65.992c9.147-0.521,16.582-2.75,24.997-4c-0.228-5.772-0.956-11.042-2-15.998
	c6.642-1.359,14.046-1.952,20.998-3c8.131,56.685,36.796,200.367,33.995,204.975c-6.518,10.725-48.835,50.362-57.992,60.992
	c-7.729-2.826-16.049,0.872-24.997,0c-2.173-4.493-2.054-11.277-4-15.998c-8.396,1.267-16.948,2.38-24.995,4
	c1.129,10.87,3.146,20.851,5,30.996c-21.679,3.987-44.897,6.43-66.991,9.999c-1.04-4.293-0.399-10.269-2-13.998
	c-37.162,4.841-74.646,14.668-110.986,16.998c-2.992-1.174-6.825-7.008-12.998-12.999c-15.229,2.769-31.119,4.616-45.744,9.366
	c-13.374,7.616,24.875,17.25-1.251,27.631c-4.01,5.989-3.96,16.037-6,23.997c-13.005,1.992-26.885,3.109-37.995,6.999
	c0.851,17.814,6.395,30.936,6.999,48.993c-2.503,7.838-23.003,18.672-13.998,44.995c1.162,6.343,9.495,10.343,9,16.996
	c-5.838,6.013-7.903,19.005-7.505,26.013c-7.833,18.983-18,7-64.487,18.983c-0.862-4.139-0.512-9.489-2-13
	c-11.256,0.076-30.763,5.017-36.996,10c-2.792-1.483-26.54-9.072-27.998-16.998c0.148-3.985,11.815-15.151,10-19.998
	c-0.729-2.271-12.519-10.654-16.999-7.998c-4.077-3.257-22.692-5.973-21.998-10c4.479-1.656,13.127,1.521,17.979-0.989
	c14.298-1.496,19-26,12.02-37.005c-26.075,8.921-51.396,18.597-75.991,28.996c-2.465-0.133-4.817-0.151-5.999,1
	c-0.766,12.097,1.544,21.118,1,32.995c-20.276,1.056-39.568,3.093-59.992,3.999c-0.049-10.948-0.64-21.356-2-30.996
	c-41.661-1.322-83.95,5.365-125.983,7c-1.063-21.604-2.021-43.308-3-64.991c-8.775-1.973-20.336,1.561-30.995,1
	c0.7-4.366-1.701-5.632-1-9.999c76.942-8.249,75.192-32.249,71.991-50.993c21.451-26.506,54.181-6.491,86.99,6.998
	c17.961,2.496,36.461-39.754,67.992-42.995c10.167-1.292,33.469-2.009,28.997-15.998c31.972,11.489,73.972,7.739,76.992,0
	c-0.901-9.431-3.338-17.326-4-26.997c8.27-1.063,25.181-4.149,24.997-5c2.798-4.501-1.46-10.512-1-15.998
	c6.817-1.514,14.506-2.159,20.998-4c0.747-6.747-1.609-10.389-1-16.998c23.018-3.313,45.951-6.708,67.99-10.999
	c-0.704-18.626-5.509-33.151-7-50.993c31.423-5.24,95.173-16.146,94.988-16.998c-1.479-28.516-9.431-59.227-13.998-87.988
	c-23.57,2.428-44.646,7.35-67.992,9.999c-1.313-3.688-0.898-9.1-2-12.999c54.443-8.881,110.404-16.246,162.979-26.996
	C1152.328,738.608,1149.88,725.725,1149.03,725.909z"/>
<g id="District_6">
	<path fill="#C8C8C8" d="M1789.95,579.927c-0.086,1.419,41.929,71.771,39.995,83.991c1.162,0.163,27.942-14.762,35.996-12.999
		c1.142,4.476-4.022,2.644-6,4c-3.019,7.649-9.657,11.673-13.998,17.998c-0.975,0.027-0.775,1.224-1,2
		c0.604,0.576,19.011-5.299,24.995-3c0.282,1.615-25.836,10.16-26.995,10.999c0.403,4.261-0.97,10.3,0.998,12.999
		c9.881,0.87,18.309-5.011,25.997-3c-6.655,6.342-19.359,6.635-29.995,8.999c-1.916,2.417-0.632,8.035-1,11.999
		c13.146,3.063,27.476-1.126,41.994,0c-0.729,10.061,1.641,17.025,1,26.997c-12.851,0.147-42.834,3.161-43.994,4
		c0,4,0,7.999,0,11.999c7.754,2.245,19.601,0.396,28.995,1c-8.089,2.243-17.818,2.843-27.995,3c-2.012,2.989-0.564,9.434-1,13.998
		c7.428,2.239,18.93,0.403,27.996,1c-0.858,2.474-6.96-0.294-7.999,2c-0.163,1.162,4.503,3.83,5.999,4
		c-7.248,1.751-15.898,2.098-24.996,2c-3.51,1.157-3.064,6.267-3,10.999c12.715,4.248,31.232-4.627,41.994,1
		c-10.779,4.217-26.793,3.203-40.994,4c-1.916,2.417-0.632,8.035-1,11.999c12.87,4.26,31.869-3.794,42.994,2
		c-11.094,4.237-27.385,3.278-41.994,4c-0.969,13.694,2.474,31.479,2,47.994c5.138,1.538,35.983-3.313,38.994,3
		c0.392,4.25-28.998,3.816-35.994,6c-0.809,0.858-42.316,23.342-44.994,23.998c-0.162,1.161,5,11.667,5,12
		c14.668-0.33,27.765-2.231,40.994-4c0,4.333,0,8.666,0,12.998c10.185,2.728,21.021-2.217,31.995-2
		c-0.693,5.691,1.693,8.305,0.999,13.997c-10.142,0.856-18.149,3.846-28.996,4c-2.123,4.209-0.483,12.181-1,17.997
		c24.393,2.367,49.438-3.202,74.991-3c-0.646,14.648,3.586,29.737,1,42.995c-11.708-7.957-24.284-15.044-36.996-21.997
		c-0.025-0.972-25.211-0.888-34.995,0c-0.087,1.42,10.159,34.839,10.998,35.998c1.163,0.163,2.943-1.39,3-2
		c0.063-3.146,5.104-3.634,6,0c-1.173,0.162-3.418,9.914-5,12.999c0.24,1.761,21.998,12.664,31.996,16.999
		c2.361,1.072,4.432,4.35,0,4.999c-6.581-4.084-14.39-6.939-21.996-9.999c-0.162-1.172-5.342,3.743-3,4
		c-0.087,1.419,5.998,21.333,5.998,22c-0.319,2.412-6.986,3.588-3.998,6c0.058,0.61,19.502,9.83,20.996,10
		c-4.709,1.623-10.627,2.039-16.998,2c-2.858,0.142-1.826,4.17-2,6.999c-4.478-1.493-16.878-3.11-14.998,5
		c-2.152,3.512-26.995,43.661-26.995,43.995c-23.526,1.471-46.407,3.586-69.99,4.999c-0.572-2-9.075-24.181-15.998-27.996
		c-2.679-3.103-3.803,2.621-6,0c-35.578-36.413-73.498-73.438-109.91-109.018c-0.226-1.274-24.488,24.945-37.071,36.027
		c-70.929,15.974-65.929,19.724-114.429,5.724c-63.824,0.362-67.003,0.903-102.75-2.5c-38-4.25-43.618-15.807-54.785-40.221
		c11.501-11.999,49.316-49.843,56.993-58.993c-10.009-66.647-21.946-131.369-32.996-196.977c7.264-2.067,16.328-2.336,22.997-5
		c0.074-3.738-0.421-6.911-2-8.998c21.556-5.107,45.106-8.22,67.992-11.998c1.384,4.281,2.211,9.119,1.998,14.998
		c16.942,1.896,33.641-4.986,50.994-6c0.597,5.069,1.054,10.279,2.999,13.998c11.768-1.23,22.571-3.426,33.996-5
		c0.315,5.685,4.063,7.938,5,13c-2.122,3.211-9.302,1.363-12,4c1.062,6.605,1.679,13.652,4,18.997
		c10.664-3.043,11.773,2.611,17.997,5.999c65.094-62.199,127.897-124.391,192.979-189.976c6.582,7.416,13.581,14.415,20.996,20.998
		C1755.202,608.182,1778.213,589.864,1789.95,579.927z"/>
	<path fill="#C8C8C8" d="M2142.906,229.971c1.757-3.243,5.233-4.764,7.999-6.999c2.181-8.722,1.114-18.012,5.999-21.997
		c1.063-22.932-62.353-136.813-62.992-144.982c-1.046-13.326,10.693-24.613,11.999-38.995c12.521-4.811,23.406-11.255,34.995-16.998
		c14.311,3.688,25.98,10.014,39.995,13.998c9.06,20.644,39.117,75.021,48.646,90.866c-6.441,12.207-14.938,34.496-16.648,41.118
		c-3.008-1.401-42.194,17.131-56.992,26.996c3.266,7.402,9.576,30.419,11.998,31.996c4.313,13.26,30.387,14.082,38.995,4
		c0.61-0.057,18.196-8.467,26.997-8.999c1.764-0.903,3.098-2.237,3.999-4c5.979-3.021,13.39-4.61,21.997-5
		c-1.598,12.067-13.29,14.04-19.997,20.998c-0.659,14.671-1.401,29.261-1,44.994c-2.664,4.335-5.422,8.577-7.999,12.999
		c-12.447-7.932-28.887-7.653-44.992-5c-9.365-12.966-30.682-13.981-37.996-28.997
		C2147.001,234.208,2143.096,230.781,2142.906,229.971z"/>
</g>
<path id="District_7" fill="#C8C8C8" d="M846.068,1148.855c6.114,6.513,2.103,33.634-21.998,30.995c-2.13-2.577-8.274-0.361-9.999,4
	c1.17,5.495,26.475,10.639,30.997,11.998c2.485-0.152,8.166,4.834,9.999,6c0.178,3.512-9.775,15.224-10,15.998
	c-9.021,10.018,26.979,25.185,33.999,22.998c5.229-4.73,21.346-8.649,30.996-9c0.553,4.779,0.615,10.05,2,13.998
	c7.435-1.506,28.607-7.729,42.993-7.998c-0.636,17.77,17.604,26.291,19.364,30.645c6.875,7.25,8.888,18.761,16.633,25.349
	c4.104,1.371,8.163-2.412,9.999,0c-12.007,12.026-19.507,5.651-25.998-2c-0.159-1.172-8.009-2.849-8.999,1
	c-3.135,6.526,8.115,16.401,8,21.997c-2.054,11.721,7.722,11.61,9.999,18.998c-2.17,9.064-18.009,13.531-8.999,25.996
	c1.711,3.499,5.791,7.541,5,10.999c-3.01,6.203-7.91,18.117-19.997,12.998c-4.513-2.795-13.73,9.871-16,11.999
	c-7.179,13.872-0.013,24.039,6,20.997c7.154-2.625,12.227-22.162,18-20.997c7.479,3.854,34.237,16.289,28.996,25.996
	c-12.342-4.457-24.938-13.606-24.996-12.998c-3.845,5.937-20.226,42.77-21,45.994c-2.882,3.451-35.239,26.146-38.997,27.997
	c-0.162,1.162,33.201,44.455,36.997,46.994c7.654,4.723,24.154,5.556,33.996,8.998c10.223,2.223,11.658,19.225,14,21.998
	c3.491,4.727,26.825,7.227,29.997,19.996c-0.184,0.853,17.225,9.774,17.999,9.999c9.995,6.73-4.838,25.063,5,31.996
	c2.829,5.9-3.385,11.612-4.999,12.998c-4.839,0.069-20.506,25.069-13,26.997c5.494,4.072,18.671-1.327,20.998-3
	c11.596-4.893,16.872,7.721,18.998,11.998c-0.896,5.27-12.168-9.426-14.999-8.998c-3.999-3-3,52.424-3,61.992
	c23.347,2.316,50.983,0.344,75.991,0.999c4.152,0.138-10.053,8.279-10,9.999c6.751,1.437,10.561-0.402,15.998,1
	c-0.189,0.81-2.515,3.816-3,4.999c-1.419-0.086-55,24.574-55.659,25.916c-59.833,21.167-91.833,88.167-104.5,128.056
	c-27.262-0.067-50.462-2.015-76.815-2.99c-2.198,5.802-0.434,15.565-1,22.997c-95.971-1.979-181.866,6.108-275.967,5.999
	c0.469,29.222-5.014,54.845-2,81.989c3.039,27.368,18.016,53.752,17.998,81.989c29.284,12.627,82.117,1.46,104.988,11.999
	c8.099,4.231,9.058,15.604,20.997,15.998c3.935,14.268-13.868,7.63-19.202,13.63c-27,7.667-53,22.667-65.791,40.363
	c-164.646,0-329.292,0-493.938,0c-1.726-0.606-35.826-127.822-36.998-127.984c-15.597-86.384-41.702-181.228-46.994-275.965
	c-1.534-27.463,10.481-49.031,5.999-78.99c1.753-0.914,55.388-9.091,95.989-4c17.065,12.576,33.065,21.576,45.996,21.997
	c33.736,7.246,224.069-11.754,331.958-14.998c-5.504-164.145-19.527-328.423-26.997-493.938c51.333-2.66,99.921-8.066,151.981-9.999
	c-0.534,11.198,1.768,19.563,1,30.996c21.528,2.165,44.219-3.085,66.992-3c3.048-10.505-1.053-22.187,0-33.995
	C772.239,1178.014,822.351,1158.801,846.068,1148.855z"/>
<path id="District_8" fill="#C8C8C8" d="M1087.038,1033.871c36.394-1.945,73.979-11.336,109.985-16.998
	c0.149,5.183,0.729,9.938,2,13.999c25.185-3.147,50.575-6.084,73.99-10.999c-1.129-10.87-3.146-20.853-5-30.996
	c6.111-0.555,12.111-1.22,16.998-3c3.503,3.497,2.099,11.901,4.999,15.998c12.521-1.386,23.232,1.229,30.996-1
	c-0.281,4.947,7.027,17.971,7.999,17.998c3.986,8.122,23.81,287.633,34.996,409.949c-10.472,0.525-20.527,1.471-31.996,1
	c-2.103,3.896-0.501,11.498-1,16.998c2.989,2.011,9.436,0.563,13.998,1c0.588,5.587-2.291,7.707-1.999,12.998
	c4.813,3.662,16.693-3.48,18.997,1c-5.563,9.104-17.117,37.543-18.997,40.994c-5.438-0.105-10.375,0.291-13.999,2
	c-2.422,0.911-18.083,55.573-17.997,56.992c1.146,4.521,9.622,1.71,11.998,5c-2.05,1.615-9.444,22.217-9.999,23.997
	c-3.256,19.74-4.281,41.712-7.999,60.991c-1.909,2.091-3.224,4.773-3.999,7.999c-5.733,6.599-45.135,61.186-45.994,61.992
	c-4.71,5.622-7.271,13.396-17.998,12.998c-29.473,6.913-60.586,36.734-64.99,35.995c-11.251-9.748-20.746-21.248-31.996-30.995
	c-0.482-3.148,3.067-2.266,1.999-6c-2.057-2.608-10.036,0.704-11.998-1.999c2.188-1.479,12.184-7.147,11.998-7.999
	c-24.029-4.635-56.636-0.69-83.989-2c0-18.331,0-36.662,0-54.992c4.417,4.394,6.838,16.238,19.998,6.998
	c0.173-6.76-9.905-13.757-14.998-18.996c-7.162-6.764-23.77,9.204-28.997,4.999c-3.992-5.001,7.243-17.755,10.999-20.997
	c3.629-1.038,6.207-3.125,7.999-6c1.655-1.078,4.503-8.1-2-13.998c-0.608-2.392-1.83-6.102,1-15.998
	c3.687-6.709-1.396-13.249-6-14.998c-0.168-1.165-11.83-4.104-16.999-9.999c1.836-4.438-19.664-16.771-29.998-18.997
	c0.5-6.441-3.5-21.774-15-22.997c-7.975-2.356-29.216-6.445-30.997-6.999c-10.065-4.565-22.304-29.345-35.997-44.995
	c1.184-0.483,36.828-23.117,36.998-28.995c6.99-12.007,17.911-41.748,18.997-41.994c7.847,0.7,27.204,24.997,28.997,4.999
	c1.003-4.71-8.747-15.46-34.996-24.997c-11.588,1.744-10.035,16.627-18.998,20.997c-10.669-9.293,5.829-22.5,9-26.996
	c6.331,3.703,17.184-0.149,16.998-1c14.249-14.214,11.749-19.714,2-29.996c-3.291-11.006,11.233-12.148,12-19.998
	c0.892-9.14-10.608-9.657-11-20.997c0.999-8.723-11.001-10.723-8-20.997c21.666,16.024,30.999,9.857,36.996,0
	c-1.997-7.309-11.83-0.976-14.999-4c-2-2.998-7.63-15.365-9.999-16.998c-3.999-9.478-21.995-17.254-22.998-34.995
	c13.749,0.769,21.539-7.465,25.749-16.231c-0.25-9,2.25-17.25,7.25-20.75c3.501-11.487-8.828-21.85-9.999-22.01
	c-0.62-9.675-2.246-20.084,2-26.997c1.405-0.262,11.999-9.743,12.999-17.493c1.896-15.563-6.254-31.243-6.999-47.499
	c12.405-0.927,24.857-4.812,37.499-5.501c0-0.333,4.66-23.334,4.497-24.497c1.023-0.978,6.5-4.833,8-6
	c12.405-6.962-4.125-12.541-5-20.998c8.398-4.198,37.73-10.659,42.995-5.999C1077.095,1024.48,1087.038,1033.204,1087.038,1033.871z
	"/>
<path id="District_10" fill="#C8C8C8" d="M1864.941,1098.863c0.402,4.401,0.267,8.266-5,6.999c-3.311,1.688-4.614,5.384-6.999,7.999
	c0.465,6.867,1.502,13.164,1,20.997c-0.893,0.441-10.918,7.034-7.999,10.999c0.857,0.807,8.721,9.941,9.999,9.998
	c2.693,2.305,9.644,0.354,13.998,1c0.192,4.806,0.479,9.521,2,12.999c-0.187,0.851,0.39,0.94,1,0.999
	c6.688,2.797,18.308,6.151,25.995,2c0.852,0.185,1.668-1,2-1c0.653-6.013-1.315-14.648,1-18.997c0,5.999,0,11.998,0,17.997
	c2.293,1.563,9.704,1.563,11.998,0c0.64-3.694-1.293-9.96,1-11.998c0.644,4.022-1.301,10.632,1,12.998c0.438,1.229,3,2.667,3,3
	c8.992-1.006,0.716-19.282,5-24.997c0.13,16.22,2.711,34.362,4,49.994c0.379,4.598-2.57,11.896,2.998,13.998c1,0,2,0,3,0
	c5.453-24.184-4.427-55.521-1-80.99c-0.011,16.121,4.113,51.129,5,67.992c0.435,8.264-0.19,15.964,9.998,10.998
	c0.852,0.185,0.942-0.392,1-1c4.193-17.563-4.782-41.162,1-56.992c4.207,17.79,2.986,41.007,4,61.992
	c-10.168,2.831-26.484-0.488-30.996,7.999c-1.166,4.832,4.063,3.271,5,5.999c1.237,10.903-0.999,18.332-6.999,21.997
	c-0.95,9.613,4.215,13.114,8.998,16.998c-0.688,10.354,1.688,17.642,1,27.994c-15.059,2.275-32.719,1.946-44.994,6.999
	c-0.54,6.54,0.616,11.385,1,16.998c5.011,3.219,4.759-6.236,11.998-3.999c0.191,6.142,2.482,10.184,2,16.998
	c3.556,1.473,13.495,1.802,16.998,0c1.162,0.162,19.629-10.033,27.996-14.998c2.307-0.307,1.109,2.891,3,2.999
	c-7.882,5.451-18.116,8.548-25.997,13.998c-3.63-1.534-2.121,6.788-0.999,6.999c8.639,2.96,17.979-2.006,27.996-0.999
	c0.396,3.729-14.995,10.003-15.998,9.998c-0.044,1.712,0.743,2.591,2,3c19.432-0.563,35.837-4.156,54.993-4.999
	c1.373,24.29,4.768,46.561,5.998,70.99c-52.445,4.113-189.588,18.502-194.977,16.998c-5.188-1.447-29.221-17.771-29.996-17.997
	c-1.163-2.673-13.709,16.093-10.999,16.997c-0.184,0.852,29.814,14.514,30.996,14.999c11.29,2.283,156.188-10.747,215.974-7
	c8.123-0.954,91.988,120.985,98.987,132.983c-31.843,3.151-66.38,3.61-95.987,8.999c-2.06-0.876-0.778,7.776,0,7.999
	c4.918,3.512,0.968,5.882,1,11.999c-0.334,0-0.666,0-1,0c-0.171,2.502,13.82,11.842,14.998,11.998
	c12.433,3.422,29.762-2.226,40.996,0c-14.688,5.313-39.639,0.356-48.994,10.999c-7.429-5.639-16.529-14.712-23.997-16.998
	c-0.774,7.105,1.512,11.151,1,17.998c-0.975,0.025-3.843,7.819-3.999,8.998c0.599,7.065,4.214,11.118,6.999,15.998
	c-1.19,2.973,8.778,0.779,8.999,0c2.216-0.553,5.999,15.332,5.999,15.998c-1.795,7.204-6.666,24.997-6.999,24.997
	c-0.065,6.396,12.735-0.072,12.998,5.999c1.171,1.494,3.743,7.59,4.999,7.999c3.933,3.215,9.773-6.225,9.999-6.999
	c4.853-6.813,7.576-15.756,10.999-23.997c2.438-3.56,13.34-8.656,13.998-9.998c1.452-0.547,11.223,0.773,11.998,0.999
	c16.396,10.265,30.02,23.309,28.997,50.994c-0.086,1.419-3.616,16.08,9.998,20.996c2.964-0.701,1.586-5.746,5-6
	c0.666,0,10.427,2.61,9.999,1c8.455-8.541,15.78-18.215,24.996-25.995c3.75,3.916,9.547,5.782,11.999,10.999
	c-0.973,0.025-4.744,3.921-4,6.999c0.81,0.188,5.724,4.607,7.999,5.999c0.895,2.698,9.941-12.391,9.999-12.998
	c0.904-2.71,3.681,0.842,3.999,2c-1.231,2.101-10.263,10.733-9.998,13.998c0.804,0.526,4.999,2.666,4.999,2.999
	c5.326,2.825,13.102-10.229,14.998-11.998c0.427,1.905,2.854,1.81,2,4.999c-1.167,1.5-9.709,11.094-6.999,11.999
	c1.241,2.091,2.907,3.758,4.999,4.999c2.656,2.265,10.103-10.229,11.999-11.998c1.763,0.901,3.096,2.234,3.999,3.999
	c-1.616,2.383-11.987,10.587-8.999,12.998c1.106,3.892,2.766,7.231,5,9.999c-0.877,2.06,2.593,4.488,2.999,2
	c0.89-0.443,1.789-0.879,2-2c2.523-2.231,11.341,5.992,11.998,3c3.656-1.679,4.913-5.754,9.999-5.999
	c3.657,3.007,7.675,5.654,11.999,7.999c2.122,4.808,9.395-1.688,6.999-4c0-0.333,0-0.666,0-1c-2.005-1.661-4.648-2.687-5-5.999
	c0.811-0.19,0.997-1.005,2-1c5.055,1.942,7.604,6.392,10.999,9.999c-0.412,3.626-8.526,4.754-5.999,7.999
	c0.278,2.054,2.67,1.993,3.999,2.999c2.545,3.287,8.18-2.372,10.999,1c1.157,1.479-1,6-1,6.999c0.81,0.188,0.996,1.003,1.999,1
	c6.791,9.643-4.323,25.055-3.999,37.993c-1.173,0.162-3.524,11.143-6.999,13c-2.129,1.869-48.108,13.884-50.994,14.998
	c-0.162,1.161,6.16,21.837,6.999,22.996c1.453-0.547,41.827-10.834,41.995-11.999c1.615-0.279,1.721,0.945,3,1
	c0.281,1.615-0.946,1.724-1,3c-1.419-0.086-43.826,11.833-43.995,12.998c-5.565,0.566-6.514-3.482-8.998-5.999
	c-0.19-0.81-1.004-0.996-1-2c-3.701-0.701-14.709,17.095-11.999,17.998c-0.184,0.853,0.39,0.943,1,1
	c11.271,10.393,25.039,18.289,34.996,29.996c-0.973,0.027-0.775,1.226-1,2c-13.27-4.434-24.525-19.44-38.995-25.997
	c-2.818,2.184-14.08,15.122-10.999,16.998c0,0.333,0,0.666,0,1c1.479,0.521,43.182,30.145,60.992,45.994
	c-4.51,3.315-6.876,13.572-12.998,11.998c-0.733-0.934-30.45-23.209-34.995-24.997c-2.761,6.572-12.996,17.002-13.999,16.998
	c-0.182,2.184,12.999,10.665,12.999,10.999c1.614-0.28,4.332,7.999,3.999,7.999c-0.072,3.404,51.224,38.101,52.992,39.995
	c-1,1.331-1.647,3.02-2.998,3.999c-2.103-1.23-49.748-36.574-53.993-37.995c-1.815,5.853-6.304,9.028-8.999,13.998
	c-0.321,2.412-3.61,6.942-3,6.999c16.232,13.765,34.921,25.071,49.994,39.995c-2.039,0.294-1.961,2.706-4,3
	c-16.713-13.616-35.93-24.729-50.993-39.995c-4.118,0.785-16.546-3.453-17.998-3.999c-5.023,3.128,0.347,10.442-3.999,13.998
	c-1,0-14.406-13.257-21.997-17.998c-0.028-0.973-25.197-11.132-27.997-15.998c0.163-1.161,2.193-17.856-4.999-16.998
	c-1.583,0.083-9.654,6.014-13.998,6.999c-9.869,7.114-35.869,5.614-43.995-10.998c-6.025-12.306-26.704-74.615-31.996-87.987
	c-0.633-3.366-3.378-22.399-9.999-19.997c-6.879,3.098-33.879,8.598-42.994,8.998c-0.892,0.441-10.128,32.865-11.998,34.996
	c-2.13,3.535-5.425,5.905-11.999,4.998c-1.604-1.729-29.854-24.805-41.995-34.994c-0.161-1.172-17.798-13.864-22.997-16.998
	c0-0.333-4.816-2.517-5.999-3c-5.353-2.377-17.958-4.254-16.998,5c0,0.666,0.503,8.83,2,10.998
	c0.279,2.055,9.999,6.999,10.999,6.999c2.249,1.751,26.715,15.278,29.996,26.997c-2.095,7.238,0.221,23.774,1,23.996
	c0.905,11.909,10.905,21.242,21.997,27.995c28.237,22.423,57.196,44.125,84.989,66.992c-12.553,18.111-72.88,66.119-49.994,95.987
	c2.114,16.632,20.222,19.772,20.998,19.998c13.309,4.052,45.116-0.366,52.992-9.999c1.688,3.312,3.646,6.353,6,8.999
	c0.966,2.367,7.224,4.774,7.998,4.999c1.852,0.562,4.986,4.905,2,6.999c0.168-2.168-3.547-0.452-5-0.999
	c-44.201,4.485-87.279-2.341-131.982,4.999c-2.309-1.357-9.223-3.775-9.998-4c-21.951-1.046-26.274-19.719-38.995-29.996
	c-0.247-1.258-13.197,12.645-20.998,10.999c-0.731-0.936-6.721-6.943-11.998-5.999c-0.168-1.165-14.771-7.398-20.997-1
	c-10.104,2.602-33.793,24.531-46.993,38.995c-159.651,0-319.291,0-478.939,0c1.636-4.03,6.162-15.835,5.999-16.998
	c2.002-3.997,20.331-9.999,20.997-9.999c0.658,1.343,14.891,6.021,18.998,4c-8.288-13.043-32.165-35.063-43.994-42.995
	c6.556-11.442,18.772-37.22,18.997-37.995c-7.25-10.414-16.892-18.438-24.997-27.996c1.172-0.162,19.842-64.814,19.998-65.992
	c2.729,1.271,19.816,24.514,20.997,24.997c11.783,3.365,29.154-8.788,43.033-22.635c18.87-12.636,34.434-7.802,46.956-5.361
	c24.044,8.611,46.544,17.986,73.989,9.998c32.162-10.831,169.609-53.235,177.556-56.72c4.42-7,7-18.195,9.667-26.528
	c-0.105-2.562-3.001-12.472-5.244-16.737c-2.421-1.245-9.224-3.775-9.999-4c-1.293-22.766-57.877-169.338-71.991-207.976
	c1.584-0.083,4.997-2.003,6-1.999c-0.443-2.555-9.22-33.773-9.999-33.996c-4.436-80.762,6.564-55.096,43.994-149.979
	c6.623-19.63,17.903-55.782-12.998-66.991c-10.401-9.262-12.68-26.646-19.998-38.995c-3.122-51.204-7.504-101.147-11.998-150.979
	c-13.156,1.842-27.489,2.507-40.995,3.999c-3.844-55.232-11.387-120.533-13.998-176.979c10.432,1.056,24.178,6.655,33.996,2
	c2.563-0.104,49.75-10.909,59.992-13c0.851,0.186,31.319-30.754,34.562-34.518c3.875,3.068,84.425,81.066,112.418,110.508
	c3.389-2.525,1.887-1.372,3.389-2.525c5.666,5.834,14,21.834,14,27.5c6.5,0,57.022-2.029,73.603-4.978
	c0.891-0.442,27.872-39.786,28.996-46.994c1.086-3.247,7.02-1.646,10.999-2c0.562,1.439,1.559,2.439,2.999,3
	c9.379,1.905,20.843-4.296,26.997,1c-13.742,0.923-27.202,2.128-39.995,3.999
	C1864.941,1094.197,1864.941,1098.196,1864.941,1098.863z"/>
<path id="District_9" fill="#FF0000" d="M1368.213,1457.364c-4.977-1.992-15.599-0.168-21.208,0.454
	c1.291-4.041,2.733-7.934,3-12.999c-3.286-2.046-10.126-0.54-14.998-0.999c0-3.333-0.001-6.666,0-9.999
	c11.734,0.734,20.855-1.144,31.995-1c-6.982-134.331-22.859-269.905-31.956-405.457c3.75,5,33.5,15.25,66.25,15.75
	c31.75,3,70-4.25,96.69,4.755c4.96,60.363,10.563,120.086,14.998,180.978c12.204,1.462,28.745-1.191,40.995-3
	c5.722,47.604,7.599,99.054,12.998,146.982c8.111,14.883,7.935,38.06,25.997,42.994c12.552,6.754,16.174,22.023,12.998,41.995
	c-14.299,42.684-24.799,64.434-44.299,99.684c-9.302,13.946-6,48.25-7,73c0.227,0.775,6.766,20.247,8.831,30.486
	c-4.581,1.514-7.331,1.514-4.526,5.804c14.795,38.864,51.523,137.308,71.816,209.071c5,3.25,9.842,3.899,11.172,4.901
	c0.172,1.496,1.644,10.688,3,10.998c-0.151,3.183-7.084,22.578-6.998,23.997c-1.179,0.156-144.041,45.938-174.979,57.993
	c-14.173,3.125-32.187,2.948-44.693-2.39c-34.978-11.125-59-20.75-87.29,2.39c-9.96,0.942-6.46-26.208-15.998-32.996
	c-1.129-2.894-20.498-3.089-24.996-8.999c3.137-3.53,16.184-28.146,15.998-28.996c0.183-2.182-9.837-7.162-10.998-6.999
	c9.454-8.543,17.823-25.219,32.995-27.997c-0.712-4.621-10.711-35.901-18.998-39.995c4.742-7.922,10.519-14.813,13.998-23.995
	c1.621,0.716-4.999-21.33-4.999-21.998c6.67-0.306,38.384-0.791,41.994-5.998c4.001-2.916,2.877-8.748-8.998-9
	c1.165-0.168,5.627-18.368,4.999-28.995c-0.604-0.576-9.332,1-9.999,1c0.413-4.413-0.271-7.729-2-9.999
	c-26.604,6.962-64.422,4.66-86.988-3.999c1.269-3.066,43.672-59.984,45.994-62.992c0.779-0.221,5.479-8.188,5.999-12.999
	c4-17.663,5.587-37.741,6.999-57.992c1.483-0.851,7.854-18.809,9.999-23.997c1.165-0.168,1.087-1.58,1-3
	c-1.313-4.351-11.099-0.231-11.999-4.999c1.436-1.23,15.084-48.574,14.998-49.994c3.107-2.559,11.802-0.981,16.54-2.114
	C1348.801,1502.4,1367.666,1458.817,1368.213,1457.364z"/>
<path id="District_11" fill="#C8C8C8" d="M1255.547,1727.364c10.863,8.58,66.375,11.239,86.459,5.42c0,2.999,0,5.999,0,8.998
	c0.693,0.783,8.837,0.172,8.999-0.999c3.137,5.83-3.61,26.385-4,28.996c-0.567,4.274,12.379,0.228,9.999,2.999
	c-10.835,5.497-30.423,2.239-42.995,6c0.547,1.452,6,23.663,6,24.996c-4.917,6.416-11.096,15.874-14.713,23.59
	c5.5,10.75,17.5,28,18.712,37.402c-3.462,0.348-25.712,12.348-31.996,29.995c-2.237,4.272,7.036,5.604,9.999,7.999
	c0,0.333-16.183,29.146-15.998,29.996c-0.17,2.503,13.533,10.106,26.996,9.999c6.718,7.229,1.87,29.94,15.998,34.995
	c-1.649,2.682-16.028,15.445-27.996,13.998c-7.465-6.886-17.602-24.393-23.997-25.996c-2.323,1.008-24.354,70.716-21.995,70.991
	c7.443,10.219,18.957,16.371,23.995,28.996c-6.556,11.44-14.062,25.038-19.505,37.593c11.334,8.334,38.607,31.286,41.502,37.396
	c-2.348-0.316-15.714-4.621-14.998-2.998c-0.774,0.225-18.913,6.864-19.88,11.229c-0.507-3.063-7.406,13.144-8.117,18.767
	c-191.646,0-383.281,0-574.928,0c-1.733-2.813,38.08-32.943,79.99-41.996c0.609-0.057,1.184-0.147,1-1
	c2.308-3.023,0.354-10.313,1-14.998c-12.861,0.529-15.532-17.869-29.997-17.996c-28.831-6.166-69.707-0.284-95.988-9
	c-0.832-26.525-14.874-51.904-17.998-77.988c-3.107-25.966,3.193-49.798,1-78.99c93.307-0.684,262.58-6.258,276.58-4.258
	c2.319-5.014-0.271-18.063,0.387-24.738c25.656,1.338,51.063,2.93,77.988,2.999c6.999-29.996,30.082-62.906,31.996-66.991
	c24.628-45.77,86.631-69.264,127.984-89.988c19.841,13.957,34.145,33.182,34.996,32.995c29.146-17.774,42.993-31.995,74.989-38.993
	C1248.139,1736.571,1253.651,1729.133,1255.547,1727.364z"/>
</svg>
